<svg xmlns="http://www.w3.org/2000/svg" xmlns:xlink="http://www.w3.org/1999/xlink" viewBox="0 0 286.25 100.97"><defs><style>.a{isolation:isolate;}.b{fill:#00529b;}.c{fill:url(#a);}.d{fill:url(#b);}.e{fill:url(#c);}.f{fill:url(#d);}.g{fill:url(#e);}.h{fill:url(#f);}.i,.n,.o,.q,.r{mix-blend-mode:lighten;}.i{fill:url(#g);}.j{fill:url(#h);}.k{fill:url(#i);}.l{fill:url(#j);}.m{fill:url(#k);}.n{fill:url(#l);}.o{fill:url(#m);}.p{fill:url(#n);}.q{fill:url(#o);}.r{fill:url(#p);}</style><linearGradient id="a" x1="-1287.23" y1="1235.22" x2="-1187.01" y2="1235.22" gradientTransform="translate(-1680.56 392.22) rotate(-145.7)" gradientUnits="userSpaceOnUse"><stop offset="0" stop-color="#aad049"/><stop offset="1" stop-color="#009c4c"/></linearGradient><linearGradient id="b" x1="85.99" y1="20.22" x2="127.82" y2="20.22" gradientTransform="translate(-41.27 153.09) rotate(-55.7)" xlink:href="#a"/><radialGradient id="c" cx="-1287.48" cy="1255.12" r="100.32" gradientTransform="translate(-1680.56 392.22) rotate(-145.7)" gradientUnits="userSpaceOnUse"><stop offset="0.06" stop-color="#aad049"/><stop offset="0.31" stop-color="#77c043"/><stop offset="0.46" stop-color="#59ad40"/><stop offset="0.56" stop-color="#51ab41"/><stop offset="0.72" stop-color="#39a744"/><stop offset="0.91" stop-color="#14a049"/><stop offset="1" stop-color="#009c4c"/></radialGradient><radialGradient id="d" cx="125.4" cy="14.48" r="37" gradientTransform="translate(-41.27 153.09) rotate(-55.7)" xlink:href="#a"/><radialGradient id="e" cx="-1269.2" cy="1265.07" r="72.43" gradientTransform="translate(-1680.56 392.22) rotate(-145.7)" gradientUnits="userSpaceOnUse"><stop offset="0" stop-color="#007fc5"/><stop offset="0.38" stop-color="#0071b8"/><stop offset="1" stop-color="#00529b"/></radialGradient><radialGradient id="f" cx="138.86" cy="12.62" r="58.09" gradientTransform="translate(-41.27 153.09) rotate(-55.7)" gradientUnits="userSpaceOnUse"><stop offset="0" stop-color="#3fc7f4"/><stop offset="0.16" stop-color="#3cb9e9"/><stop offset="0.46" stop-color="#3295cb"/><stop offset="0.87" stop-color="#245a9b"/><stop offset="1" stop-color="#1f468b"/></radialGradient><radialGradient id="g" cx="163.95" cy="-31.7" r="84.91" gradientTransform="translate(-41.27 153.09) rotate(-55.7)" gradientUnits="userSpaceOnUse"><stop offset="0" stop-color="#92d5d5"/><stop offset="0.15" stop-color="#83c9d0"/><stop offset="0.44" stop-color="#5ca8c2"/><stop offset="0.83" stop-color="#1e74ac"/><stop offset="1" stop-color="#005ba1"/></radialGradient><linearGradient id="h" x1="146.18" y1="-39.1" x2="76.44" y2="18.89" gradientTransform="translate(-41.27 153.09) rotate(-55.7)" gradientUnits="userSpaceOnUse"><stop offset="0" stop-color="#009c4c"/><stop offset="0.03" stop-color="#0b9e4a"/><stop offset="0.1" stop-color="#27a447"/><stop offset="0.19" stop-color="#3da844"/><stop offset="0.28" stop-color="#4dab42"/><stop offset="0.39" stop-color="#56ac40"/><stop offset="0.54" stop-color="#59ad40"/><stop offset="0.69" stop-color="#77c043"/><stop offset="0.94" stop-color="#aad049"/></linearGradient><radialGradient id="i" cx="88.24" cy="13.14" r="44.45" gradientTransform="translate(-41.27 153.09) rotate(-55.7)" gradientUnits="userSpaceOnUse"><stop offset="0" stop-color="#a4cd39"/><stop offset="1" stop-color="#178040"/></radialGradient><radialGradient id="j" cx="124.38" cy="17.7" r="37.4" gradientTransform="translate(-41.27 153.09) rotate(-55.7)" gradientUnits="userSpaceOnUse"><stop offset="0" stop-color="#fff"/><stop offset="1" stop-color="#aad049"/></radialGradient><radialGradient id="k" cx="250.72" cy="-46" r="5.05" gradientTransform="translate(-149.61 171.79) rotate(-26.66)" gradientUnits="userSpaceOnUse"><stop offset="0" stop-color="#007fc5"/><stop offset="0.46" stop-color="#0071b7"/><stop offset="1" stop-color="#005ba1"/></radialGradient><radialGradient id="l" cx="4" cy="148.96" r="6.36" gradientTransform="matrix(0.74, 0.67, 0.67, -0.74, -46.72, 127.5)" xlink:href="#g"/><radialGradient id="m" cx="-1.8" cy="147.2" r="2.1" gradientTransform="matrix(0.74, 0.67, 0.67, -0.74, -46.72, 127.5)" xlink:href="#g"/><radialGradient id="n" cx="259.92" cy="-38.24" r="3.73" xlink:href="#k"/><radialGradient id="o" cx="13.88" cy="154.6" r="4.7" gradientTransform="matrix(0.74, 0.67, 0.67, -0.74, -46.72, 127.5)" xlink:href="#g"/><radialGradient id="p" cx="9.6" cy="153.3" r="1.55" gradientTransform="matrix(0.74, 0.67, 0.67, -0.74, -46.72, 127.5)" xlink:href="#g"/></defs><title>eam-logo</title><g class="a"><path class="b" d="M153.24,54.21H128.33V73.63h27.86v9.91H116.26V17.43h38.45v9.9H128.33V44.4h24.91Z"/><path class="b" d="M175,64.81l-5.69,18.73H156.87l21.19-66.11h15.4l21.48,66.11H202l-6-18.73ZM194,55.68l-5.2-16.28c-1.27-4-2.35-8.53-3.33-12.36h-.2c-1,3.83-2,8.44-3.14,12.36L177,55.68Z"/><path class="b" d="M273.21,56.57c-.39-8.54-.89-18.74-.79-27.76h-.29c-2.16,8-4.91,17-7.85,25.3l-9.71,28.65h-9.22l-8.83-28.25c-2.55-8.44-4.9-17.46-6.67-25.7h-.19c-.3,8.63-.69,19.12-1.18,28.15L227,83.54H215.73l4.41-66.11H236L244.66,44c2.36,7.75,4.42,15.6,6.09,22.95H251c1.77-7.16,4-15.3,6.57-23l9.12-26.48h15.7l3.82,66.11H274.48Z"/><path class="c" d="M22,92.19A50.49,50.49,0,0,0,86.7,85.66h-.21c-2.36.89-61.39,22.09-74.39-68A51.23,51.23,0,0,0,8.78,22,50.48,50.48,0,0,0,22,92.19Z"/><path class="d" d="M85.76,85.93A50.49,50.49,0,0,1,.49,43.45,50.49,50.49,0,0,0,86.7,85.66h-.21C86.38,85.72,86.13,85.81,85.76,85.93Z"/><path class="e" d="M86.49,85.67a15.07,15.07,0,0,1-2.33,0,24.59,24.59,0,0,1-13.07-5.12C62.31,74,56.24,64.13,50.79,54.81c-2.87-4.9-5.59-9.89-8.38-14.84-3-5.23-5.89-10.61-10.06-15-5.09-5.35-12.36-9.89-20-7.37l-.25.09C25.1,107.76,84.13,86.56,86.49,85.67Z"/><path class="f" d="M12.35,17.61l-.25.09c.06.47.14.94.21,1.4,7.58-2.4,14.78,2.11,19.83,7.42,4.17,4.38,7.1,9.76,10.06,15,2.79,5,5.51,9.94,8.38,14.84C56,65.67,62.1,75.56,70.88,82.12A25.45,25.45,0,0,0,81.9,87a37.68,37.68,0,0,0,4.59-1.34,15.07,15.07,0,0,1-2.33,0,24.59,24.59,0,0,1-13.07-5.12C62.31,74,56.24,64.13,50.79,54.81c-2.87-4.9-5.59-9.89-8.38-14.84-3-5.23-5.89-10.61-10.06-15C27.26,19.63,20,15.09,12.35,17.61Z"/><path class="g" d="M26.1,16.79c6.95,3.48,12.27,9.38,16.31,15.91C48.23,42.08,53.09,52,59,61.33a89.84,89.84,0,0,0,9.87,13.24c3,3.19,6.67,6.36,10.32,7.61a11.77,11.77,0,0,0,5,.65,16.38,16.38,0,0,0,6.2-2c.21-.11.41-.23.61-.35.38-.52.76-1,1.13-1.58A50.49,50.49,0,0,0,15.46,14.12,24.63,24.63,0,0,1,26.1,16.79Z"/><path class="h" d="M50.41,0A50.49,50.49,0,0,1,90.93,78.92c-.36.53-.74,1.06-1.13,1.58l-.6.35a16.56,16.56,0,0,1-6.2,2l-.55,0a10.89,10.89,0,0,0,1.8,0,16.38,16.38,0,0,0,6.2-2c.21-.11.41-.23.61-.35.38-.52.76-1,1.13-1.58A50.49,50.49,0,0,0,50.41,0Z"/><path class="i" d="M84.53,80.28c-13,1.84-25.73-25.49-28.39-30.94C43.25,22.85,30.36,8.93,18.22,12.94,31.78-.77,73.78-11.71,94.49,32.32c3.73,7.93,5.45,24.49,2.57,33C95.14,70.94,90.81,79.39,84.53,80.28Z"/><path class="j" d="M12.1,17.7A51.23,51.23,0,0,0,8.78,22,50.48,50.48,0,0,0,18.91,89.87c4-6.6,6.8-16,7.78-26.78C20.28,52.59,15,38,12.1,17.7Z"/><path class="k" d="M9.75,21.86c.78-1.15,1.61-2.26,2.47-3.32l-.12-.84A51.23,51.23,0,0,0,8.78,22,50.48,50.48,0,0,0,18.91,89.87c.13-.21.25-.44.38-.66A50.48,50.48,0,0,1,9.75,21.86Z"/><path class="l" d="M86.57,85.65a43.49,43.49,0,0,1-7.07,2,57.82,57.82,0,0,1-7.31,1A50.77,50.77,0,0,1,57.5,87.46a45.22,45.22,0,0,1-13.64-5.67,50.23,50.23,0,0,1-11.21-9.65,66.16,66.16,0,0,1-8.34-12.2A91,91,0,0,1,18.46,46.4a132.64,132.64,0,0,1-3.94-14.19c-1-4.8-1.84-9.64-2.42-14.51q.6,3.63,1.32,7.23T15,32.09a131.69,131.69,0,0,0,4.2,14,96.54,96.54,0,0,0,6,13.34,66.65,66.65,0,0,0,8.25,12,50.09,50.09,0,0,0,11,9.49,45.85,45.85,0,0,0,13.31,5.73,50.37,50.37,0,0,0,14.48,1.45,57.55,57.55,0,0,0,7.28-.74c1.2-.21,2.4-.45,3.59-.74S85.41,86.05,86.57,85.65Z"/><path class="m" d="M58.18,22.12c1.5-1.66.75-4.76-1.66-6.94s-5.57-2.59-7.07-.94S48.7,19,51.11,21.18,56.69,23.78,58.18,22.12Z"/><path class="n" d="M57.27,21.3c1.5-1.66.76-4.76-1.66-6.94s-5.57-2.59-7.07-.93-.75,4.76,1.66,6.93S55.78,23,57.27,21.3Z"/><path class="o" d="M52.39,18.67c.62-.7.31-2-.69-2.9s-2.33-1.08-3-.39-.31,2,.69,2.89S51.77,19.36,52.39,18.67Z"/><path class="p" d="M68.74,23.89c1.11-1.22.56-3.51-1.22-5.12s-4.12-1.91-5.22-.7-.56,3.53,1.22,5.13S67.64,25.12,68.74,23.89Z"/><path class="q" d="M68.07,23.29c1.11-1.22.56-3.52-1.22-5.12s-4.12-1.92-5.22-.7S61.07,21,62.85,22.6,67,24.52,68.07,23.29Z"/><path class="r" d="M64.47,21.35c.46-.51.23-1.47-.51-2.14s-1.72-.8-2.18-.29-.23,1.47.51,2.14S64,21.86,64.47,21.35Z"/></g></svg>